<svg width="44" height="44" viewBox="0 0 44 44" fill="none" xmlns="http://www.w3.org/2000/svg">
    <path d="M43.5 22C43.5 33.8741 33.8741 43.5 22 43.5C10.1259 43.5 0.5 33.8741 0.5 22C0.5 10.1259 10.1259 0.5 22 0.5C33.8741 0.5 43.5 10.1259 43.5 22Z" fill="white" stroke="#E5E5E5"/>
    <path d="M10.7273 17.3528L20.3477 21.8468C20.8036 22.0589 21.4019 22.1642 22.0002 22.1642C22.5984 22.1642 23.1967 22.0589 23.651 21.8468L33.2714 17.3528C34.18 16.9286 34.18 16.2356 33.2714 15.8113L23.651 11.3174C23.1983 11.1053 22.5984 11 22.0001 11C21.4019 11 20.8036 11.1053 20.3493 11.3174L10.7257 15.8114C9.81867 16.2356 9.81867 16.9301 10.7273 17.3528V17.3528ZM21.1748 12.862C21.3107 12.7976 21.605 12.7253 22.0002 12.7253C22.3953 12.7253 22.6896 12.7976 22.8256 12.862L30.7936 16.5845L22.8256 20.3038C22.6912 20.3682 22.3953 20.4405 22.0002 20.4405C21.605 20.4405 21.3107 20.3682 21.1763 20.3038L13.2052 16.5829L21.1747 12.862L21.1748 12.862ZM10.5081 22.8414L19.935 27.2427C20.5237 27.5177 21.2611 27.6544 21.9985 27.6544C22.7104 27.6638 23.4159 27.524 24.0621 27.2427L33.489 22.8414C33.593 22.7929 33.686 22.7244 33.7625 22.6398C33.839 22.5553 33.8974 22.4565 33.9343 22.3493C33.9711 22.2422 33.9857 22.1289 33.9771 22.0161C33.9684 21.9033 33.9368 21.7934 33.8841 21.6928C33.7687 21.4881 33.5788 21.3338 33.3525 21.2606C33.1262 21.1875 32.8801 21.201 32.6635 21.2984L23.2399 25.7012C22.5904 26.0045 21.4115 26.0045 20.762 25.7012L11.3352 21.2984C11.1175 21.195 10.8679 21.1773 10.6374 21.2489C10.4069 21.3204 10.213 21.4759 10.0954 21.6834C10.0419 21.7855 10.0102 21.8972 10.0021 22.0117C9.99397 22.1262 10.0097 22.2412 10.0483 22.3496C10.087 22.4579 10.1476 22.5574 10.2267 22.642C10.3057 22.7266 10.4015 22.7944 10.5081 22.8414H10.5081ZM33.9049 27.0306C33.7873 26.8231 33.5935 26.6676 33.3631 26.5957C33.1327 26.5239 32.883 26.5412 32.6651 26.644L23.2399 31.0469C22.5904 31.3501 21.4115 31.3501 20.762 31.0469L11.3368 26.644C11.1191 26.5412 10.8697 26.524 10.6396 26.5959C10.4094 26.6677 10.2159 26.8232 10.0986 27.0306C10.0443 27.1309 10.0117 27.2412 10.0029 27.3545C9.99406 27.4678 10.0092 27.5817 10.0474 27.6889C10.0871 27.7979 10.1486 27.898 10.2283 27.9833C10.308 28.0686 10.4042 28.1373 10.5114 28.1855L19.9366 32.5883C20.5253 32.8617 21.2627 33 22.0002 33C22.7376 33 23.4751 32.8633 24.0637 32.5883L33.4906 28.1886C33.5973 28.1417 33.6933 28.074 33.7725 27.9895C33.8517 27.905 33.9125 27.8055 33.9513 27.6971C33.9901 27.5887 34.006 27.4737 33.998 27.3591C33.99 27.2445 33.9583 27.1327 33.9049 27.0306L33.9049 27.0306Z" fill="#878787"/>
</svg>
