<svg width="44" height="44" viewBox="0 0 44 44" fill="none" xmlns="http://www.w3.org/2000/svg">
    <path d="M43.5 22C43.5 33.8741 33.8741 43.5 22 43.5C10.1259 43.5 0.5 33.8741 0.5 22C0.5 10.1259 10.1259 0.5 22 0.5C33.8741 0.5 43.5 10.1259 43.5 22Z" fill="white" stroke="#E5E5E5"/>
    <path d="M22 10C21.4902 10 21.0769 10.4133 21.0769 10.9231V20C21.0769 21.1046 21.9724 22 23.0769 22H32.1466C33.1702 22 34.0155 21.1654 33.8588 20.1538V20.1538C33.0169 14.7003 28.5031 10.4597 22.9231 10.0351C22.6185 10.012 22.3111 10 22 10V10ZM22.9231 11.8877C27.4831 12.2985 31.1726 15.7231 31.9868 20.1538H22.9231V11.8877Z" fill="#878787"/>
    <path d="M10 22C10 16.7436 13.3802 12.2761 18.085 10.6532C18.6609 10.4546 19.2308 10.9051 19.2308 11.5142V11.5142C19.2308 11.9367 18.9482 12.3034 18.5509 12.4469C14.6409 13.8589 11.8462 17.6023 11.8462 22C11.8462 27.6077 16.3923 32.1538 22 32.1538C26.7063 32.1538 30.6649 28.9516 31.8162 24.6074C31.932 24.1706 32.3149 23.8462 32.7667 23.8462V23.8462C33.3408 23.8462 33.7821 24.3594 33.643 24.9164C32.3403 30.1343 27.6219 34 22 34C15.3723 34 10 28.6277 10 22Z" fill="#878787"/>
</svg>
