<svg width="14" height="14" viewBox="0 0 14 14" fill="none" xmlns="http://www.w3.org/2000/svg">
    <path d="M10.5645 4.61735C10.431 4.54097 10.2795 4.50076 10.1254 4.50076C9.97128 4.50076 9.81985 4.54097 9.68631 4.61735L7.67157 5.80866L6.30259 6.58561L4.28785 7.77695C4.1543 7.85333 4.00288 7.89354 3.84875 7.89354C3.69462 7.89354 3.5432 7.85333 3.40965 7.77695L1.8082 6.84462C1.67679 6.76673 1.56752 6.65691 1.4907 6.5255C1.41387 6.3941 1.37202 6.24544 1.3691 6.09354V4.25478C1.36654 4.10178 1.40608 3.951 1.48346 3.81866C1.56083 3.68632 1.67311 3.57743 1.8082 3.50373L3.38382 2.59728C3.51737 2.5209 3.6688 2.48069 3.82293 2.48069C3.97707 2.48069 4.1285 2.5209 4.26205 2.59728L5.83767 3.50373C5.96907 3.58162 6.07833 3.69144 6.15515 3.82284C6.23197 3.95423 6.27382 4.10288 6.27675 4.25478V5.4461L7.64573 4.64325V3.45191C7.64828 3.29892 7.60875 3.14814 7.53138 3.0158C7.45401 2.88346 7.34173 2.77457 7.20664 2.70086L4.28785 0.991596C4.1543 0.915208 4.00288 0.875 3.84875 0.875C3.69462 0.875 3.54319 0.915208 3.40965 0.991596L0.439218 2.70089C0.304128 2.77459 0.191853 2.88347 0.114479 3.01581C0.0371055 3.14815 -0.00243456 3.29893 0.000116268 3.45191V6.8964C-0.00243691 7.04939 0.0371027 7.20017 0.114478 7.33251C0.191853 7.46485 0.304132 7.57373 0.439225 7.64743L3.40966 9.35671C3.5432 9.43312 3.69462 9.47333 3.84876 9.47333C4.00289 9.47333 4.15432 9.43312 4.28786 9.35671L6.3026 8.19129L7.67157 7.38846L9.68632 6.22303C9.81986 6.14665 9.97129 6.10644 10.1254 6.10644C10.2796 6.10644 10.431 6.14665 10.5645 6.22303L12.1401 7.12949C12.2715 7.20738 12.3808 7.31719 12.4576 7.44859C12.5344 7.57999 12.5763 7.72863 12.5792 7.88052V9.71931C12.5818 9.8723 12.5423 10.0231 12.4649 10.1554C12.3875 10.2878 12.2752 10.3966 12.1401 10.4703L10.5645 11.4027C10.431 11.4791 10.2796 11.5193 10.1254 11.5193C9.97129 11.5193 9.81986 11.4791 9.68632 11.4027L8.1107 10.4963C7.97928 10.4184 7.87 10.3086 7.79318 10.1772C7.71635 10.0457 7.6745 9.89709 7.67157 9.74519V8.55388L6.3026 9.35671V10.5481C6.30004 10.701 6.33958 10.8518 6.41695 10.9842C6.49432 11.1165 6.6066 11.2254 6.74168 11.2991L9.71212 13.0084C9.84566 13.0848 9.99709 13.125 10.1512 13.125C10.3054 13.125 10.4568 13.0848 10.5903 13.0084L13.5608 11.2991C13.6922 11.2212 13.8014 11.1114 13.8783 10.98C13.9551 10.8486 13.997 10.6999 13.9999 10.5481V7.10357C14.0024 6.95058 13.9629 6.7998 13.8855 6.66746C13.8081 6.53512 13.6959 6.42624 13.5608 6.35254L10.5645 4.61735Z" fill="#7B3FE4"/>
</svg>
