<svg width="44" height="44" viewBox="0 0 44 44" fill="none" xmlns="http://www.w3.org/2000/svg">
  <path d="M22 44C34.1503 44 44 34.1503 44 22C44 9.84974 34.1503 0 22 0C9.84974 0 0 9.84974 0 22C0 34.1503 9.84974 44 22 44Z" fill="#6DCFB8"/>
  <path d="M19.3203 14.7305L21.0074 13.0434V20.9895C21.0074 21.0332 21.0101 21.077 21.0156 21.118V23.8797C21.0156 24.4484 21.4832 24.9133 22.0546 24.916C22.6234 24.916 23.0882 24.4512 23.0882 23.8824V13.0461L24.7753 14.7332C25.1773 15.1379 25.839 15.1379 26.2437 14.7332C26.6484 14.3312 26.6484 13.6695 26.2437 13.2648L22.8093 9.825C22.8011 9.81406 22.7929 9.80586 22.7847 9.79766C22.6507 9.66367 22.4894 9.57617 22.3171 9.52969C22.3007 9.52695 22.2871 9.52148 22.2707 9.51875L22.2296 9.51055C22.205 9.50508 22.1777 9.50234 22.1531 9.49961H22.1394C22.1121 9.49687 22.082 9.49414 22.0519 9.49414H22.0464C22.0164 9.49414 21.989 9.49687 21.9589 9.49961H21.9453C21.9179 9.50234 21.8933 9.50508 21.8687 9.51055L21.8277 9.51875C21.8113 9.52148 21.7949 9.52695 21.7812 9.52969C21.6089 9.57617 21.4476 9.66367 21.3136 9.79766C21.3054 9.80859 21.2972 9.8168 21.289 9.825L17.8519 13.2621C17.4472 13.6641 17.4472 14.3258 17.8519 14.7305C18.2539 15.1352 18.9156 15.1352 19.3203 14.7305Z" fill="white"/>
  <path d="M32.5409 17.7382C32.5409 17.1586 32.0706 16.6882 31.4881 16.691C30.9112 16.6937 30.4409 17.164 30.4436 17.7437L30.46 29.2007L26.9436 29.2062C26.9217 29.2062 26.8999 29.2035 26.878 29.2035L22.0546 29.2117L17.2311 29.2035C17.2092 29.2035 17.1874 29.2062 17.1655 29.2062L13.6491 29.2007L13.6655 17.7437C13.6682 17.164 13.1979 16.6937 12.621 16.691C12.0385 16.6882 11.5682 17.1586 11.5682 17.7382L11.5491 30.248C11.5463 30.8304 12.0167 31.3007 12.5963 31.3007C12.6264 31.3007 12.6565 31.3007 12.6838 31.298L17.9338 31.3062V31.3171L18.9374 31.3144C18.9592 31.3144 18.9811 31.3171 19.003 31.3171L22.0573 31.3117L25.1116 31.3171C25.1335 31.3171 25.1553 31.3144 25.1772 31.3144L26.1807 31.3171V31.3062L31.4307 31.298C31.4581 31.3007 31.4881 31.3007 31.5182 31.3007C32.0979 31.3007 32.5682 30.8304 32.5655 30.248L32.5409 17.7382Z" fill="white"/>
</svg>
