<svg width="44px" height="44px" viewBox="0 0 44 44" version="1.1" xmlns="http://www.w3.org/2000/svg" xmlns:xlink="http://www.w3.org/1999/xlink">
    <g id="页面-1" stroke="none" stroke-width="1" fill="none" fill-rule="evenodd">
        <g id="bnb-6219388" fill-rule="nonzero">
            <g id="Logo" transform="translate(0.000000, -0.000000)">
                <circle id="Ellipse" fill="#F3BA2C" cx="22" cy="22" r="22"></circle>
                <g id="编组" transform="translate(6.644123, 6.644326)" fill="#FFFFFF">
                    <g id="Triangles_1_" transform="translate(5.916426, 0.000000)">
                        <polygon id="路径" points="18.8789033 21.2718964 18.8758568 21.2734196 9.43945164 30.7113481 0.00456968774 21.2764661 0 21.2718964 3.47448591 17.8065499 3.47448591 17.8065499 9.43945164 23.7699924 15.4059406 17.8035034"></polygon>
                        <polygon id="路径" points="18.8758568 9.43792841 15.4059406 12.9078446 9.43945164 6.94135567 3.47448591 12.9047982 0.00456968774 9.43488195 9.43945164 0"></polygon>
                    </g>
                    <g id="Rectangles_1_" transform="translate(0.000000, 11.832445)">
                        <polygon id="矩形" transform="translate(27.241095, 3.525357) rotate(-45.000000) translate(-27.241095, -3.525357) " points="24.7871963 1.07145811 29.6949938 1.07145811 29.6949938 5.97925567 24.7871963 5.97925567"></polygon>
                        <polygon id="矩形" transform="translate(3.470337, 3.523498) rotate(-45.000000) translate(-3.470337, -3.523498) " points="1.01643816 1.06959901 5.92423572 1.06959901 5.92423572 5.97739657 1.01643816 5.97739657"></polygon>
                        <polyline id="路径" points="18.8760602 3.52170602 18.8775834 3.52170602 15.3558774 0 12.7542018 2.60167555 12.7542018 2.60167555 12.4556489 2.90022848 11.8387411 3.51713633 11.8341714 3.52170602 11.8387411 3.5262757 15.3574006 7.04493526 18.8791066 3.52322925 18.8806299 3.52170602 18.8760602 3.52170602"></polyline>
                    </g>
                </g>
            </g>
        </g>
    </g>
</svg>